<svg xmlns="http://www.w3.org/2000/svg" width="16" height="16"><path d="M7.3 9v.1l-1.5 1.5a1.2 1.2 0 0 0-.2.3 1.2 1.2 0 0 0 .2 1.3 1.1 1.1 0 0 0 1 .4 1.2 1.2 0 0 0 .7-.4l1.9-1.8L11 8.7a1.1 1.1 0 0 0 .2-.3 1.1 1.1 0 0 0 0-.6 1 1 0 0 0-.1-.6l-.5-.5-3.4-3.4a1.1 1.1 0 0 0-1-.2 1.1 1.1 0 0 0-.7.4 1.1 1.1 0 0 0-.2.6 1.2 1.2 0 0 0 .4 1l1.5 1.5v.1H2.1a1.2 1.2 0 0 0-.7.4 1.1 1.1 0 0 0-.3 1 1.1 1.1 0 0 0 .4.7 1.1 1.1 0 0 0 .8.2h5zm5.2-1v4a.6.6 0 0 1-.3.4.7.7 0 0 1-.4.1h-1.2a1.2 1.2 0 0 0-.7.5 1.2 1.2 0 0 0 .2 1.6 1.1 1.1 0 0 0 .7.3h1a6 6 0 0 0 .6 0 2.3 2.3 0 0 0 .8-.3 3 3 0 0 0 .6-.4 3.1 3.1 0 0 0 .7-.9A2.9 2.9 0 0 0 15 12V3.7a2.5 2.5 0 0 0-.3-.9 3 3 0 0 0-.9-1A2.9 2.9 0 0 0 12 1h-1.3a1.1 1.1 0 0 0-.6.4 1.1 1.1 0 0 0-.3.7 1.1 1.1 0 0 0 .1.7 1.1 1.1 0 0 0 1 .6H12a.6.6 0 0 1 .6.5v4z" fill="#fff"/><path d="M7.3 9h-5a1.1 1.1 0 0 1-.8-.2 1.1 1.1 0 0 1-.4-.6 1.1 1.1 0 0 1 .3-1 1.2 1.2 0 0 1 .7-.5h5.2L5.8 5a1.2 1.2 0 0 1-.4-1 1.1 1.1 0 0 1 .2-.6 1.1 1.1 0 0 1 .7-.5 1.1 1.1 0 0 1 1 .3l3.4 3.4.5.5a1 1 0 0 1 .2.6 1.1 1.1 0 0 1-.1.6 1.1 1.1 0 0 1-.2.2l-1.7 1.8-1.9 1.8a1.2 1.2 0 0 1-.8.4 1.1 1.1 0 0 1-1-.4 1.2 1.2 0 0 1-.1-1.3 1.2 1.2 0 0 1 .2-.3l1.4-1.4.1-.1z" fill="#fff"/><path d="M12.5 8V4a.6.6 0 0 0-.5-.5h-1.2a1.1 1.1 0 0 1-1-.6 1.1 1.1 0 0 1-.2-.6 1.1 1.1 0 0 1 .4-.8 1.1 1.1 0 0 1 .7-.4H12a2.9 2.9 0 0 1 1.8.7 3 3 0 0 1 .8 1 2.5 2.5 0 0 1 .3.9v8.2a2.9 2.9 0 0 1-.4 1.4 3.1 3.1 0 0 1-.7.9 3 3 0 0 1-.6.4 2.3 2.3 0 0 1-.7.2 6 6 0 0 1-.7 0h-1a1.1 1.1 0 0 1-.7-.2A1.2 1.2 0 0 1 10 13a1.2 1.2 0 0 1 .7-.4h1.2a.7.7 0 0 0 .4-.1.6.6 0 0 0 .3-.5V8z" fill="#fff"/></svg>