<svg xmlns="http://www.w3.org/2000/svg" width="111" height="24"><path d="M14 8.2c5-1.7 5.3-8 .4-8a5 5 0 0 0-4 3L3.6 14.6a9.5 9.5 0 0 1-1 1.4A5.2 5.2 0 0 1 4 8.6L3 7.4C-2.1 10.6-.6 20 8 20c7.3 0 10.7-8.8 6-12zm-6.1 10a7 7 0 0 1-3.6-.8 12.7 12.7 0 0 0 1.3-1.8l4-7.1h.8c5.7 1.3 3.4 9.7-2.5 9.7zM10.5 7l2-3.4c1.8-3 4-1.3 2.9 1C14.4 6.5 13 7 10.5 7z" fill="#fff"/><path d="M110 13.4v.2a11.6 11.6 0 0 1-4.6 3.4l1-1.8 2.7-4.7c2.3-3.9-1.4-5.2-3.9-3l.5-.8h-2.5l-3.8 6.7-.2.2a5.3 5.3 0 0 1-3.7 1.8l2.4-4c1.4-2.6 0-5-2.3-5-1.8 0-3.3.7-4.7 3.2l-1.2 2-1 1.8-.2.2c-1.7 2-3.4 3.6-4.5 3.6-.6 0-.9-.3-.3-1.3l3.5-6.2c1-1.9 0-3.2-1.3-3.2a5 5 0 0 0-3.4 1.9l4-6.9H84l-6.9 11.9-.1.2a15.3 15.3 0 0 1-3 2.6c.8-2.3.6-5.9 2.1-9l-1.8-1c-1 1.3-3.2 4.5-5.5 7.1l-.1.2c-1.8 2-3.5 3.7-4.6 3.7-.6 0-.9-.4-.3-1.3l2.5-4.3a2.5 2.5 0 0 0-.4-3.4l-1.3-1.6a1 1 0 0 1 .1-1.4l-1.3-1.4C62 5.1 62 6.5 62.8 7.6l.2.3c-1 1.5-2.5 3.6-4.1 5.5l-.2.2c-1.8 2-4 3.6-5.8 3.6-1.5 0-2.4-.9-1.2-2.9l.2-.4c1.6.7 4.6.3 6.4-2.8l.3-.6c1.4-2.3 0-4-2-4A5.2 5.2 0 0 0 52 9.3l-2.3 4-.1.3a5.2 5.2 0 0 1-3.8 1.8l2.4-4a6 6 0 0 0 .9-2.8 2.1 2.1 0 0 0-2.2-2.2 2.9 2.9 0 0 0-1.6.5l3-5.4H46l-6.9 12h-.1c-1.8 2.1-3.5 3.7-4.6 3.7-.5 0-.9-.3-.3-1.3l2.5-4.3a2.5 2.5 0 0 0-.4-3.3l-1.4-1.7a1 1 0 0 1 .2-1.4l-1.3-1.4c-1.4 1.3-1.5 2.7-.6 3.8l.2.3c-1 1.5-2.5 3.6-4.1 5.5l-.2.2c-1.8 2-3.5 3.6-4.6 3.6-.5 0-.8-.3-.3-1.3L28 9h-1.4A2.5 2.5 0 0 0 24 6.5a5.5 5.5 0 0 0-4.2 2.8l-3.4 6c-1 1.8-.3 3.5 1.6 3.5a6 6 0 0 0 3.4-1.7 1.9 1.9 0 0 0 2.2 1.6c2 0 4.3-2.1 6.4-4.5L34 9l.3.4a1.2 1.2 0 0 1 .2 1.4l-2.6 4.5c-1 1.8-.3 3.5 1.6 3.5 1.5 0 3-1 4.5-2.5a2.6 2.6 0 0 0 2.9 2.6 5.4 5.4 0 0 0 4.2-2.3 4.2 4.2 0 0 0 .5 0 7.2 7.2 0 0 0 3.3-1c-.2 1.8 1.1 3.1 3.3 3.1 2.8 0 5.5-2.1 7.6-4.5l4-5.3.4.4a1.2 1.2 0 0 1 .1 1.4l-2.6 4.5c-1 1.9-.3 3.5 1.7 3.5s4.3-2.1 6.4-4.5c1.4-1.6 2.6-3.3 3.5-4.5-1 2.6-.5 7.1-2.8 7.1a1.4 1.4 0 0 1-1.2-.9l-1.5.8a2.7 2.7 0 0 0 2.7 2 6.7 6.7 0 0 0 .7 0 8.6 8.6 0 0 0 3.8-1.6l-.8 1.4h2.4l3.8-6.5c3.8-4.7 5.4-4.1 4.4-2.3l-3.2 5.5c-1 1.8-.3 3.5 1.7 3.5 1.4 0 3-1 4.5-2.5 0 3.1 4.3 3.7 7 .4h.5A6.8 6.8 0 0 0 98 16l-4.5 7.8H96l7.3-12.8c2.8-3.7 4.5-2.4 3.9-1.3l-3.8 6.5a1 1 0 0 1-1.7 0l-1.4.6a2.7 2.7 0 0 0 2.7 2h.1c3.6 0 6-2.2 8-4.5a1.5 1.5 0 0 0-1-1zM54.3 9.9c1.4-2.4 3.9-2 2.4.5l-.3.6c-1.2 2-2.8 2-3.7 1.7zm-31.5 3.9c-1.5 2.3-3 3.4-4 3.4-.5 0-.8-.3-.3-1.3l3.5-6c1.3-2.3 3.9-1.7 2.7.5zM41.2 17a1 1 0 0 1-1-.9 2.8 2.8 0 0 1 .4-1.3l.9-1.5a3.6 3.6 0 0 0 1.6 2.6 2.3 2.3 0 0 1-1.9 1.1zm2.6-2.3a2.6 2.6 0 0 1-1-2.3c0-1.7 1.7-4.6 3-4.6a1 1 0 0 1 1 1.1 3 3 0 0 1-.5 1.5zm50.4-1.3H94a1.4 1.4 0 0 0-1.5 1.5 1.6 1.6 0 0 0 .3.8c-1.2 2-4 1.6-2.5-1l1.8-3.1 1.2-2c1.7-3 4.1-1.8 2.6.7z" fill="#fff"/></svg>